<?xml version="1.0" standalone="no"?>
<!DOCTYPE svg PUBLIC "-//W3C//DTD SVG 20010904//EN"
 "http://www.w3.org/TR/2001/REC-SVG-20010904/DTD/svg10.dtd">
<svg version="1.0" xmlns="http://www.w3.org/2000/svg"
 width="446.000000pt" height="429.000000pt" viewBox="0 0 446.000000 429.000000"
 preserveAspectRatio="xMidYMid meet">

<g transform="translate(0.000000,429.000000) scale(0.100000,-0.100000)"
fill="#000000" stroke="none">
<path d="M1342 3857 c-12 -13 -22 -34 -22 -48 -1 -48 -29 -141 -53 -172 -38
-51 -48 -90 -28 -114 19 -24 95 -73 114 -73 7 0 41 -29 76 -65 39 -40 72 -65
85 -65 13 0 47 25 86 65 35 36 69 65 75 65 19 0 117 54 125 70 6 11 -2 38 -26
86 -26 51 -36 87 -41 139 -8 100 -23 125 -74 125 -22 0 -60 -5 -85 -11 -32 -8
-56 -9 -87 -1 -95 25 -121 25 -145 -1z"/>
<path d="M2485 3859 c-69 -19 -198 -58 -284 -85 -25 -8 -54 -14 -65 -14 -27 0
-106 -31 -128 -50 -43 -36 -28 -57 188 -269 188 -184 209 -202 237 -199 34 3
48 23 66 93 5 22 17 65 25 95 8 30 22 84 31 120 33 127 38 146 51 189 23 74
19 108 -16 126 -16 8 -30 15 -32 14 -2 0 -34 -9 -73 -20z"/>
<path d="M3700 3767 c-52 -17 -114 -84 -129 -140 -16 -57 -10 -104 23 -167
l25 -48 -29 -46 c-16 -25 -33 -46 -38 -46 -18 0 -102 97 -102 118 0 64 -94
194 -163 226 -99 46 -296 61 -338 27 -23 -18 -24 -25 -23 -123 1 -100 13 -155
49 -234 34 -72 131 -144 196 -144 27 0 46 -13 116 -84 84 -85 95 -104 68 -126
-8 -7 -15 -16 -15 -21 0 -5 -20 -40 -45 -79 l-45 -70 -53 0 c-30 0 -69 -5 -87
-11 -33 -12 -34 -11 -106 63 l-73 75 6 69 c3 39 0 87 -6 111 -15 55 -69 107
-137 133 -54 20 -58 20 -110 3 -127 -40 -190 -151 -151 -266 8 -21 19 -43 25
-49 17 -17 15 -63 -3 -78 -8 -7 -15 -17 -15 -23 0 -5 -10 -24 -23 -41 -12 -17
-31 -47 -41 -67 -11 -20 -35 -61 -55 -90 -33 -50 -39 -54 -78 -57 -52 -4 -54
5 -17 78 32 64 46 165 35 256 -15 119 -59 204 -148 284 -96 86 -189 120 -329
120 -113 0 -171 -20 -271 -92 -120 -87 -183 -216 -183 -373 0 -94 8 -130 46
-210 14 -27 24 -53 24 -56 0 -4 -31 -9 -69 -11 -39 -2 -73 -6 -76 -10 -15 -15
-25 -92 -31 -232 -3 -81 -10 -153 -15 -160 -23 -26 -193 -292 -215 -336 -29
-59 -30 -92 -1 -150 25 -51 75 -89 159 -120 31 -12 63 -29 72 -38 8 -10 19
-48 25 -87 45 -300 65 -375 125 -458 24 -33 120 -107 139 -107 7 0 17 -4 23
-9 22 -20 115 -31 276 -32 95 -1 184 -4 198 -8 32 -9 58 -55 70 -123 24 -135
38 -182 60 -200 21 -17 57 -18 611 -18 576 0 589 0 609 20 24 24 24 33 6 119
-8 36 -22 102 -31 146 -8 44 -20 99 -25 123 -6 23 -10 94 -10 157 0 131 14
196 67 325 24 59 30 73 66 150 131 282 163 367 205 535 37 147 42 179 57 319
15 139 12 168 -19 188 -6 4 -78 8 -161 9 -192 2 -207 5 -216 46 -3 17 -16 48
-28 68 -11 20 -21 42 -21 50 0 10 89 164 106 184 2 2 39 -30 82 -71 98 -94
149 -109 227 -67 45 24 59 40 80 88 35 80 18 118 -108 247 l-99 101 22 44 c35
73 55 92 90 84 74 -16 179 46 219 130 37 79 21 161 -45 229 -59 61 -139 80
-224 53z m144 -129 c10 -11 21 -40 24 -64 4 -38 1 -47 -27 -75 -29 -28 -37
-31 -76 -26 -57 6 -84 36 -85 93 0 47 28 90 63 97 36 7 81 -4 101 -25z m-261
-516 c92 -93 167 -173 167 -180 0 -6 -10 -23 -23 -38 -18 -20 -28 -25 -46 -19
-37 11 -345 321 -335 337 13 21 57 68 64 68 3 0 81 -76 173 -168z m-1814 21
c8 -27 17 -66 22 -88 21 -109 53 -212 73 -233 26 -29 18 -30 263 34 139 36
137 37 131 -40 -6 -72 -42 -153 -91 -203 l-31 -33 -239 0 -240 0 -33 35 c-37
40 -60 81 -80 145 -46 150 33 336 176 414 36 20 35 21 49 -31z m1027 -18 c33
-31 36 -39 31 -71 -9 -56 -51 -94 -103 -94 -99 0 -128 127 -42 180 47 28 71
25 114 -15z m87 -318 c104 -107 105 -109 93 -161 -8 -34 -16 -48 -31 -51 -11
-2 -109 -6 -219 -10 l-198 -6 6 24 c3 13 34 71 69 128 l64 104 44 -3 c24 -2
55 1 69 7 44 17 61 12 103 -32z m342 -137 c38 -14 60 -73 44 -114 -18 -42 -37
-55 -83 -56 -30 0 -47 7 -68 27 -38 36 -38 81 1 122 31 33 60 39 106 21z
m-470 -384 c73 -15 109 -33 156 -78 101 -96 117 -258 36 -372 -36 -51 -210
-226 -224 -226 -7 0 -13 -4 -13 -9 0 -5 -13 -14 -29 -21 -49 -20 -134 1 -177
44 -61 61 -66 168 -9 182 26 6 65 -17 65 -39 0 -5 7 -24 16 -43 14 -30 21 -34
54 -34 37 0 74 21 113 65 10 11 44 47 75 80 71 75 92 112 92 164 0 79 -68 168
-147 191 -58 18 -122 -3 -184 -57 -54 -50 -90 -56 -114 -19 -22 33 -8 63 53
116 78 68 128 80 237 56z m-1009 -34 c22 -14 34 -51 34 -102 0 -97 -50 -141
-100 -88 -30 32 -29 142 2 175 22 23 44 29 64 15z m-73 -760 c30 -27 161 -22
214 6 33 19 46 21 62 13 75 -41 21 -112 -110 -146 -51 -14 -71 -14 -113 -5
-76 18 -136 50 -153 84 -15 29 -14 31 12 53 29 26 55 24 88 -5z"/>
</g>
</svg>
